<svg width="202" height="78" viewBox="0 0 202 78" fill="none" xmlns="http://www.w3.org/2000/svg">
<path fill-rule="evenodd" clip-rule="evenodd" d="M48.255 32.1452C51.3992 36.0929 53.2793 41.0854 53.2793 46.5163C53.2793 51.9471 51.342 57.0921 48.1153 61.062L47.8358 61.405L47.7627 60.9699C47.6992 60.6015 47.6262 60.2267 47.5404 59.852C45.9239 52.7506 40.6582 46.6623 31.9911 41.7301C26.1379 38.4081 22.7873 34.4128 21.9075 29.868C21.339 26.9303 21.7614 23.9799 22.5777 21.4518C23.3939 18.927 24.6071 16.8086 25.6393 15.5351L29.0121 11.4127C29.6028 10.6886 30.7112 10.6886 31.3019 11.4127L48.2582 32.1452H48.255ZM53.5874 28.026L30.9875 0.395406C30.5556 -0.131802 29.7489 -0.131802 29.317 0.395406L6.72026 28.026L6.64721 28.1181C2.48993 33.279 0 39.8373 0 46.9768C0 63.6027 13.5009 77.0814 30.1522 77.0814C46.8036 77.0814 60.3045 63.6027 60.3045 46.9768C60.3045 39.8373 57.8146 33.279 53.6573 28.1213L53.5842 28.0292L53.5874 28.026ZM12.1289 32.0563L14.1487 29.5822L14.2091 30.0395C14.2567 30.4016 14.3171 30.7636 14.3869 31.1289C15.6954 37.9921 20.3672 43.7119 28.1768 48.1423C34.9669 52.0074 38.921 56.4506 40.058 61.3224C40.5343 63.355 40.6169 65.3558 40.4105 67.1058L40.3978 67.2138L40.2993 67.2614C37.2346 68.7573 33.7887 69.5989 30.1491 69.5989C17.3787 69.5989 7.02515 59.2644 7.02515 46.5131C7.02515 41.0378 8.93388 36.0103 12.1225 32.0499L12.1289 32.0563Z" fill="white"/>
<path d="M79.824 57L66.768 23.112H74.832L84.768 50.52H81.456L91.536 23.112H99.504L86.304 57H79.824ZM109.924 57.528C107.397 57.528 105.141 57.016 103.157 55.992C101.205 54.936 99.6685 53.48 98.5485 51.624C97.4285 49.768 96.8685 47.672 96.8685 45.336C96.8685 43 97.4125 40.92 98.5005 39.096C99.6205 37.24 101.125 35.784 103.013 34.728C104.901 33.672 107.029 33.144 109.397 33.144C111.701 33.144 113.733 33.64 115.493 34.632C117.253 35.624 118.629 37 119.621 38.76C120.645 40.52 121.156 42.536 121.156 44.808C121.156 45.224 121.125 45.672 121.061 46.152C121.029 46.6 120.949 47.128 120.821 47.736L100.709 47.784V42.744L117.701 42.696L114.533 44.808C114.501 43.464 114.293 42.36 113.909 41.496C113.525 40.6 112.949 39.928 112.181 39.48C111.445 39 110.533 38.76 109.445 38.76C108.293 38.76 107.285 39.032 106.421 39.576C105.589 40.088 104.933 40.824 104.453 41.784C104.005 42.744 103.781 43.912 103.781 45.288C103.781 46.664 104.021 47.848 104.501 48.84C105.013 49.8 105.717 50.552 106.613 51.096C107.541 51.608 108.629 51.864 109.877 51.864C111.029 51.864 112.069 51.672 112.997 51.288C113.925 50.872 114.741 50.264 115.445 49.464L119.477 53.496C118.325 54.84 116.933 55.848 115.301 56.52C113.669 57.192 111.877 57.528 109.924 57.528ZM124.701 57V33.672H132.045V57H124.701ZM132.045 44.184L128.973 41.784C129.581 39.064 130.605 36.952 132.045 35.448C133.485 33.944 135.485 33.192 138.045 33.192C139.165 33.192 140.141 33.368 140.973 33.72C141.837 34.04 142.589 34.552 143.229 35.256L138.861 40.776C138.541 40.424 138.141 40.152 137.661 39.96C137.181 39.768 136.637 39.672 136.029 39.672C134.813 39.672 133.837 40.056 133.101 40.824C132.397 41.56 132.045 42.68 132.045 44.184ZM145.186 57V33.672H152.53V57H145.186ZM148.882 30.456C147.73 30.456 146.77 30.072 146.002 29.304C145.266 28.504 144.898 27.544 144.898 26.424C144.898 25.272 145.266 24.312 146.002 23.544C146.77 22.776 147.73 22.392 148.882 22.392C150.034 22.392 150.978 22.776 151.714 23.544C152.45 24.312 152.818 25.272 152.818 26.424C152.818 27.544 152.45 28.504 151.714 29.304C150.978 30.072 150.034 30.456 148.882 30.456ZM160.677 57V31.656C160.677 29.768 161.093 28.072 161.925 26.568C162.789 25.032 163.989 23.832 165.525 22.968C167.061 22.072 168.885 21.624 170.997 21.624C172.597 21.624 173.989 21.896 175.173 22.44C176.389 22.952 177.445 23.672 178.341 24.6L173.733 29.208C173.413 28.888 173.045 28.648 172.629 28.488C172.245 28.296 171.781 28.2 171.237 28.2C170.245 28.2 169.461 28.488 168.885 29.064C168.309 29.64 168.021 30.424 168.021 31.416V57H160.677ZM155.541 39.912V33.672H174.741V39.912H155.541ZM185.292 57.096L175.692 33.672H183.612L189.708 52.248H186.78L193.02 33.672H200.94L190.956 57.096H185.292ZM179.292 66.84L186.3 51.72L190.956 57.096L186.828 66.84H179.292Z" fill="white"/>
</svg>
